<?xml version="1.0" standalone="no"?>
<!DOCTYPE svg PUBLIC "-//W3C//DTD SVG 20010904//EN"
 "http://www.w3.org/TR/2001/REC-SVG-20010904/DTD/svg10.dtd">
<svg version="1.0" xmlns="http://www.w3.org/2000/svg"
 width="2000.000000pt" height="2000.000000pt" viewBox="0 0 2000.000000 2000.000000"
 preserveAspectRatio="xMidYMid meet">
<metadata>
Created by potrace 1.11, written by Peter Selinger 2001-2013
</metadata>
<g transform="translate(0.000000,2000.000000) scale(0.100000,-0.100000)"
fill="#000000" stroke="none">
<path d="M13596 14477 c-33 -17 -61 -40 -64 -49 -2 -10 -12 -18 -21 -19 -9 0
-38 -27 -64 -60 l-49 -59 -55 0 c-48 0 -65 -6 -124 -42 -38 -24 -69 -48 -69
-55 0 -7 -4 -13 -10 -13 -6 0 -10 -43 -10 -107 l0 -108 -103 -127 -102 -128
-1517 0 c-1343 0 -1518 -2 -1518 -15 0 -13 -172 -15 -1492 -15 l-1493 1 -142
175 -143 175 0 77 -1 77 -70 43 c-50 30 -80 42 -108 42 -79 0 -96 9 -154 79
-42 52 -72 77 -125 104 l-70 37 -663 0 -664 0 -82 -37 -83 -38 0 -67 0 -68
-132 0 -133 0 -118 -156 -118 -155 -67 -390 -68 -390 -145 -119 c-129 -106
-162 -141 -308 -318 -156 -191 -168 -208 -283 -423 -118 -220 -122 -228 -196
-469 l-75 -245 -26 -262 c-26 -259 -27 -264 -11 -420 l15 -158 -398 -2415
-398 -2415 12 -150 c10 -126 18 -172 54 -290 168 -562 648 -957 1235 -1019
129 -13 161 -14 285 0 191 20 366 73 533 161 122 65 176 106 610 467 70 58
110 115 939 1336 476 701 869 1279 874 1284 4 5 48 -25 98 -65 118 -97 305
-195 466 -244 450 -137 947 -38 1309 260 174 142 412 423 500 588 121 228 170
482 141 737 -7 69 -17 135 -20 148 l-7 22 361 0 c234 0 361 -4 361 -10 0 -6
130 -10 371 -10 325 0 370 -2 365 -15 -3 -8 -11 -73 -17 -144 -31 -331 64
-664 259 -906 120 -150 267 -315 280 -315 6 0 12 -6 12 -13 0 -8 49 -54 110
-103 298 -243 665 -355 1040 -317 269 26 546 137 739 295 69 57 86 67 97 56 7
-7 393 -573 858 -1258 465 -685 855 -1249 866 -1255 11 -5 20 -15 20 -22 0
-12 223 -202 460 -394 447 -361 1075 -418 1580 -143 123 66 273 180 366 276
231 239 373 542 408 868 l14 135 -399 2435 -400 2435 16 157 c16 156 16 160
-10 415 l-26 258 -74 246 c-74 243 -76 248 -197 475 -118 221 -129 238 -283
426 -93 115 -167 197 -177 197 -10 1 -18 8 -18 16 0 8 -58 63 -130 122 -89 74
-131 115 -134 132 -3 14 -33 188 -67 386 l-61 360 -117 154 c-64 85 -124 156
-133 159 -10 2 -18 11 -18 18 0 11 -29 14 -150 14 l-150 0 0 50 c0 38 -4 50
-15 50 -8 0 -15 7 -15 15 0 8 -32 29 -76 50 l-77 35 -676 0 -676 -1 -59 -32z
m1424 -22 c22 -12 -64 -14 -684 -15 -626 0 -708 2 -690 15 28 21 1336 22 1374
0z m120 -105 l0 -40 -795 0 -795 0 0 40 0 40 795 0 795 0 0 -40z m-1640 -20
c0 -14 -7 -20 -22 -20 -20 0 -21 1 -3 20 10 11 20 20 22 20 1 0 3 -9 3 -20z
m-40 -40 c0 -5 -5 -10 -11 -10 -5 0 -7 5 -4 10 3 6 8 10 11 10 2 0 4 -4 4 -10z
m2010 -430 l0 -401 -89 46 c-60 31 -167 69 -332 120 l-244 74 -257 25 -257 25
-253 -25 c-139 -13 -275 -31 -302 -39 -27 -8 -53 -12 -58 -9 -4 3 -8 1 -8 -3
0 -5 -19 -14 -42 -21 -24 -6 -64 -18 -90 -26 l-48 -15 0 324 0 325 990 0 990
0 0 -400z m-2161 386 c-2 -2 -17 -6 -34 -10 -22 -5 -26 -4 -15 4 14 9 59 15
49 6z m131 -276 l0 -260 -97 0 -98 0 -31 128 -31 127 124 132 c69 73 127 133
129 133 2 0 4 -117 4 -260z m2265 -25 c-2 -11 -27 -140 -56 -287 l-52 -267
-38 20 -39 19 0 392 0 391 95 -124 c65 -85 93 -130 90 -144z m-2435 184 c0
-12 -24 -46 -55 -77 l-55 -57 0 78 0 77 55 0 c49 0 55 -2 55 -21z m-159 -339
c-5 -40 -12 -74 -14 -76 -3 -3 -33 -4 -67 -2 l-62 3 74 91 c81 100 85 99 69
-16z m74 -29 l13 -51 -25 0 c-21 0 -24 4 -19 23 3 12 6 37 6 56 0 44 8 35 25
-28z m2598 -235 c26 -149 45 -271 44 -273 -2 -1 -26 14 -53 35 -27 20 -69 46
-93 56 -34 16 -42 24 -38 40 2 12 21 112 43 223 21 111 42 199 45 195 3 -4 27
-128 52 -276z m-1509 122 c5 -32 3 -54 -3 -58 -6 -3 -98 -14 -203 -24 -106
-10 -200 -20 -209 -22 -12 -3 -20 8 -30 43 -8 27 -14 53 -14 58 0 8 308 46
431 54 18 1 22 -6 28 -51z m501 0 c1 -1 1 -26 -2 -53 l-5 -51 -213 21 c-118
11 -216 23 -219 25 -2 3 -8 28 -11 56 l-7 50 227 -22 c124 -12 228 -24 230
-26z m-1335 -21 c0 -31 -2 -33 -67 -51 -40 -11 -165 -70 -305 -143 -233 -123
-240 -127 -437 -290 -111 -90 -201 -171 -201 -179 0 -8 -6 -14 -14 -14 -8 0
-88 -90 -178 -199 -158 -193 -167 -206 -285 -427 -121 -227 -122 -231 -197
-479 l-75 -250 -25 -253 -24 -253 24 -252 c24 -248 26 -255 85 -451 37 -127
56 -202 49 -206 -6 -3 -47 -17 -93 -30 -45 -13 -98 -33 -117 -45 -19 -12 -73
-41 -120 -65 -47 -24 -87 -47 -90 -50 -12 -15 -196 -163 -208 -168 -7 -2 -11
-10 -8 -18 3 -7 -1 -14 -9 -16 -7 -2 -52 -50 -99 -108 -93 -112 -203 -305
-234 -408 l-18 -57 -447 -3 -447 -2 0 220 0 220 28 5 c77 15 122 28 170 50 62
28 151 94 152 113 0 6 5 12 10 12 16 0 56 47 95 112 115 192 97 445 -43 616
-19 23 -41 42 -48 42 -8 0 -14 6 -14 14 0 18 -73 77 -135 108 -60 31 -148 58
-187 58 l-28 0 0 1223 c0 672 -3 1320 -7 1440 l-6 217 1776 0 1777 0 0 -33z
m340 -43 l18 -51 -213 -65 -212 -64 -24 45 c-13 25 -24 49 -24 55 0 10 401
136 424 133 8 -1 22 -25 31 -53z m1273 -8 c114 -35 210 -65 212 -68 6 -6 -25
-98 -33 -98 -4 0 -96 27 -205 60 -108 33 -199 60 -202 60 -7 0 -6 75 1 94 3 9
9 16 13 16 3 0 99 -29 214 -64z m-503 -61 l245 -24 230 -70 c221 -67 239 -75
440 -182 196 -105 222 -122 393 -263 170 -139 195 -163 330 -329 136 -165 155
-194 261 -390 111 -208 115 -217 186 -452 l73 -240 22 -236 22 -235 -22 -235
-22 -234 -73 -240 c-71 -235 -75 -245 -185 -450 -104 -194 -125 -224 -260
-390 -137 -168 -160 -191 -331 -331 -174 -142 -196 -157 -396 -263 -202 -107
-223 -116 -440 -182 l-228 -70 -245 -24 -245 -24 -237 23 c-191 19 -242 28
-261 43 -108 86 -327 279 -327 289 0 7 5 14 11 16 6 2 7 12 2 26 -5 13 -13 22
-18 20 -5 -2 -23 42 -39 96 -22 72 -27 101 -18 104 16 5 -3 42 -22 42 -19 0
-100 158 -100 195 -1 23 -5 30 -23 30 -25 0 -145 141 -141 165 4 24 -12 43
-26 31 -9 -7 -35 8 -94 56 -68 55 -80 69 -72 84 8 14 6 19 -11 24 -12 4 -24 2
-28 -3 -10 -17 -192 85 -189 106 3 19 -31 30 -41 13 -10 -16 -195 42 -199 63
-2 9 -7 16 -12 16 -5 0 -15 3 -24 6 -11 4 -16 1 -16 -11 0 -9 -6 -15 -14 -13
-11 2 -332 355 -481 528 -14 16 -56 389 -56 495 0 33 9 155 21 270 21 203 24
217 91 442 68 225 74 239 184 444 106 198 124 226 261 393 137 168 161 192
329 330 169 139 195 156 393 262 204 110 220 116 444 185 226 69 237 71 452
93 122 13 230 24 241 25 11 0 130 -10 265 -24z m-1246 -76 c16 -28 26 -52 24
-55 -10 -9 -379 -204 -387 -204 -5 0 -25 21 -45 47 l-36 46 203 108 c111 60
205 109 208 109 3 0 18 -23 33 -51z m2213 -55 c109 -58 200 -108 202 -110 4
-3 -32 -76 -45 -93 -2 -2 -368 188 -391 204 -3 1 30 105 33 105 1 0 92 -48
201 -106z m-2649 -183 l42 -49 -165 -137 c-91 -75 -171 -138 -178 -140 -7 -3
-33 14 -60 38 l-47 42 181 148 c99 81 182 147 183 147 2 0 22 -22 44 -49z
m3158 -168 c52 -42 94 -80 94 -83 0 -4 -15 -24 -33 -45 l-34 -39 -171 140
c-94 76 -171 142 -171 145 -1 4 11 27 25 53 l26 46 84 -70 c47 -39 128 -105
180 -147z m-3544 -150 c23 -20 42 -41 42 -48 -2 -15 -264 -335 -275 -335 -15
0 -109 54 -109 63 0 10 283 356 292 357 3 0 26 -16 50 -37z m3833 -156 c76
-93 134 -172 129 -176 -5 -4 -25 -19 -44 -33 l-35 -25 -144 175 -143 174 38
39 c30 31 41 36 50 27 6 -7 73 -89 149 -181z m-4100 -267 c9 -14 -195 -392
-209 -387 -6 2 -35 12 -64 21 l-53 18 39 71 c22 40 68 126 102 192 35 66 67
125 73 132 7 9 20 7 57 -12 27 -14 51 -29 55 -35z m4370 -141 c59 -111 103
-205 98 -210 -4 -4 -25 -15 -45 -23 l-37 -16 -24 43 c-14 23 -62 111 -107 196
-66 124 -79 155 -68 162 8 5 26 17 39 28 13 11 27 20 30 21 4 0 55 -91 114
-201z m-4595 -318 c-13 -43 -100 -334 -111 -367 l-9 -30 -65 10 c-52 7 -64 13
-61 25 3 9 33 109 67 222 l62 206 62 -20 c60 -19 62 -22 55 -46z m4789 -159
c35 -117 62 -215 59 -217 -2 -3 -24 -8 -49 -11 l-44 -6 -59 198 c-33 110 -61
204 -63 210 -4 12 55 44 77 41 9 -1 35 -71 79 -215z m-4922 -286 c1 -1 -7
-100 -19 -219 l-22 -217 -67 0 -68 0 4 33 c3 17 11 100 20 182 8 83 18 170 21
194 l6 43 61 -7 c34 -3 63 -8 64 -9z m5007 -83 c4 -54 11 -125 16 -158 4 -33
11 -90 15 -127 l7 -68 -51 0 c-28 0 -51 1 -51 3 0 1 -9 90 -20 197 -25 247
-25 238 3 243 76 15 74 17 81 -90z m-5030 -585 c10 -101 20 -199 23 -219 l5
-36 -61 -13 c-34 -7 -64 -10 -68 -7 -3 4 -14 91 -24 194 -10 104 -20 205 -23
226 l-4 37 67 0 68 0 17 -182z m5063 140 c-3 -24 -13 -127 -23 -230 -11 -114
-22 -188 -28 -188 -6 0 -28 5 -48 11 -45 12 -44 -8 -18 249 11 107 20 196 20
198 0 1 23 2 51 2 l52 0 -6 -42z m-6957 -298 c0 -5 -9 -10 -20 -10 -11 0 -20
5 -20 10 0 6 9 10 20 10 11 0 20 -4 20 -10z m99 -16 c2 -2 2 -7 -2 -10 -8 -9
-47 6 -47 17 0 9 37 3 49 -7z m82 -35 c28 -15 13 -31 -16 -17 -25 11 -34 28
-14 28 6 0 19 -5 30 -11z m-47 -52 c156 -74 246 -221 246 -403 0 -135 -46
-250 -136 -339 -49 -48 -165 -104 -232 -112 l-52 -6 0 453 0 453 52 -6 c28 -4
83 -22 122 -40z m132 -6 c14 -11 20 -22 15 -26 -13 -8 -63 24 -55 36 8 13 13
11 40 -10z m84 -95 c0 -14 -26 -4 -38 14 -19 31 -3 44 19 16 10 -13 19 -27 19
-30z m1564 -73 c-13 -240 -12 -240 -67 -58 -26 87 -46 159 -45 160 6 4 83 23
101 24 16 1 17 -9 11 -126z m4949 116 c20 -5 37 -14 37 -20 0 -16 -122 -414
-130 -422 -11 -12 -93 32 -88 46 3 7 31 101 63 210 33 108 64 197 70 197 5 0
27 -5 48 -11z m484 -2336 c278 -1695 380 -2338 375 -2366 -5 -28 -105 521
-410 2251 l-403 2288 22 77 c13 42 26 77 29 77 3 0 177 -1047 387 -2327z
m-5138 2058 c100 -112 180 -205 178 -208 -2 -2 -30 -1 -61 3 -49 6 -56 9 -56
29 0 16 -7 24 -25 27 -22 5 -25 2 -25 -22 0 -26 -3 -28 -57 -34 -32 -4 -79 -9
-104 -12 l-47 -6 -13 52 c-11 43 -16 50 -32 46 -19 -5 -19 0 -13 137 4 78 9
166 13 196 l6 53 27 -28 c16 -16 110 -121 209 -233z m-1819 179 c6 -11 8 -25
4 -32 -6 -10 -33 25 -34 45 0 15 20 6 30 -13z m43 -100 c7 -29 -11 -36 -22 -8
-9 24 -5 42 8 33 5 -2 11 -14 14 -25z m17 -100 c0 -16 -4 -30 -10 -30 -5 0
-10 14 -10 30 0 17 5 30 10 30 6 0 10 -13 10 -30z m6839 -2305 l411 -2330 -41
-135 c-81 -268 -239 -508 -445 -676 -445 -362 -1076 -424 -1578 -153 l-118 64
-1034 1634 -1034 1633 64 122 c45 84 77 164 107 261 23 77 43 141 44 142 1 2
39 -8 86 -22 59 -17 161 -32 341 -50 l257 -25 258 25 258 26 247 75 c245 74
250 76 476 197 219 117 236 129 424 282 115 94 197 167 197 178 1 9 9 17 19
17 10 1 82 81 177 198 153 187 166 207 282 424 96 178 130 252 155 337 18 60
34 109 35 108 1 -1 186 -1050 412 -2332z m-6839 2200 c0 -14 -4 -25 -10 -25
-5 0 -10 11 -10 25 0 14 5 25 10 25 6 0 10 -11 10 -25z m1506 -67 l13 -37
-101 -31 c-55 -17 -101 -30 -103 -28 -8 9 -46 90 -43 93 13 13 142 43 177 42
41 -2 45 -4 57 -39z m4794 -31 c0 -13 -212 -407 -219 -407 -3 1 -23 16 -45 34
l-38 33 82 154 c45 85 93 173 106 196 l25 42 44 -21 c25 -12 45 -26 45 -31z
m-6317 3 c-3 -11 -9 -23 -14 -25 -13 -9 -17 9 -8 33 11 28 29 21 22 -8z m1286
-85 c1 -8 -137 -87 -178 -103 -4 -1 -22 18 -39 42 l-32 44 103 55 102 55 22
-41 c12 -23 22 -46 22 -52z m679 44 c143 -15 316 -70 452 -142 610 -323 836
-1101 499 -1718 -282 -516 -888 -761 -1464 -592 -491 144 -839 566 -887 1077
-77 814 585 1464 1400 1375z m-2006 -59 c-9 -16 -21 -25 -25 -21 -12 12 10 51
28 51 12 0 11 -5 -3 -30z m1108 -114 c0 -2 -36 -34 -80 -71 l-80 -67 -46 37
c-25 21 -42 40 -39 44 4 3 45 38 93 77 l87 71 32 -43 c18 -24 33 -45 33 -48z
m-1156 56 c3 -5 -2 -19 -11 -31 -20 -29 -40 -13 -24 18 12 22 26 27 35 13z
m-64 -77 c0 -18 -36 -38 -52 -29 -7 4 -2 13 13 25 29 23 39 24 39 4z m-80 -64
c0 -14 -49 -31 -56 -20 -7 12 -7 12 21 27 20 10 35 8 35 -7z m1108 -78 c2 -1
-27 -40 -66 -87 l-70 -84 -38 25 c-22 14 -43 29 -48 34 -5 4 23 48 64 99 l74
90 40 -37 c22 -21 42 -39 44 -40z m-1204 38 c7 -10 -43 -25 -52 -16 -7 7 18
25 35 25 6 0 14 -4 17 -9z m-104 -20 c0 -5 -7 -12 -16 -15 -22 -9 -24 -8 -24
9 0 8 9 15 20 15 11 0 20 -4 20 -9z m6510 -89 c0 -4 -292 -362 -295 -362 -2 0
-19 20 -39 45 l-37 44 143 174 142 174 43 -35 c24 -20 43 -38 43 -40z m-5386
-118 l24 -15 -41 -77 c-63 -119 -54 -112 -113 -88 l-52 21 55 103 c62 115 47
108 127 56z m5020 -220 c16 -20 29 -42 30 -50 0 -7 -78 -78 -174 -158 l-175
-144 -27 47 c-15 25 -27 51 -27 56 0 9 327 283 339 284 3 1 18 -15 34 -35z
m-5148 -10 l33 -14 -15 -47 c-8 -27 -21 -72 -30 -101 -12 -41 -19 -52 -32 -48
-9 3 -34 8 -55 12 -29 5 -38 11 -34 23 2 9 17 58 33 109 30 101 25 97 100 66z
m-168 -144 c-11 -33 -22 -33 -81 -3 -39 20 -24 33 38 33 l54 0 -11 -30z m-64
-61 c35 -15 46 -25 42 -37 -3 -9 -8 -61 -11 -114 l-7 -96 -49 35 c-33 24 -48
41 -45 52 3 9 8 53 11 99 4 45 8 82 10 82 1 0 23 -9 49 -21z m189 -56 c4 -2 5
-14 3 -26 -3 -12 -8 -57 -11 -99 l-7 -78 -55 0 -55 0 7 88 c11 137 9 135 64
127 25 -4 49 -9 54 -12z m4818 -76 c6 -15 10 -29 8 -31 -9 -8 -403 -216 -404
-213 -9 10 -33 113 -27 115 4 1 90 47 192 102 l185 99 17 -22 c10 -12 23 -35
29 -50z m-2068 -132 c135 -114 136 -113 -15 -114 l-98 -1 0 -26 0 -27 131 5
130 6 -7 -32 c-10 -46 -22 -76 -32 -76 -4 0 -50 13 -101 29 -75 24 -93 27 -98
15 -3 -8 -3 -21 1 -29 4 -11 -2 -15 -22 -15 -49 0 -55 11 -48 81 14 135 15
139 43 139 19 0 24 4 19 16 -3 9 -6 20 -6 25 0 5 -8 9 -19 9 -21 0 -31 26 -31
83 0 46 -11 52 153 -88z m-2920 -47 c3 -13 9 -63 13 -113 l7 -90 -44 40 -44
39 -10 102 -10 102 41 -29 c23 -16 44 -39 47 -51z m4531 -30 c8 -29 13 -54 11
-56 -2 -2 -99 -33 -216 -69 -235 -71 -229 -72 -229 8 l0 46 198 61 c108 33
202 61 209 61 6 1 18 -22 27 -51z m-4370 -45 c4 -43 9 -90 12 -105 5 -25 3
-27 -48 -35 -63 -10 -62 -12 -73 126 l-7 91 55 0 55 0 6 -77z m3211 -62 l180
-17 -3 -59 c-1 -32 -4 -60 -5 -61 -7 -7 -452 43 -452 51 0 6 6 33 13 61 l13
52 37 -5 c20 -2 118 -12 217 -22z m674 -92 c-5 -3 -93 -13 -196 -23 -104 -9
-203 -20 -222 -23 l-34 -6 8 59 c4 33 9 61 12 64 2 3 100 14 216 25 l212 20 6
-55 c4 -30 3 -57 -2 -61z m-4019 -23 c0 -2 13 -47 30 -101 l29 -99 -41 42
c-35 34 -47 57 -69 132 l-27 90 39 -31 c21 -17 39 -32 39 -33z m185 -93 c14
-49 28 -93 30 -100 4 -11 -91 -50 -100 -42 -3 5 -65 204 -65 212 0 3 15 8 33
10 80 10 74 14 102 -80z m2612 73 c2 -2 -58 -207 -63 -214 -3 -5 -74 27 -74
34 0 9 51 177 57 187 4 6 71 0 80 -7z m-2679 -320 l33 -61 -32 35 c-17 19 -44
62 -60 95 l-30 60 28 -34 c16 -19 43 -62 61 -95z m171 -2 l49 -90 -48 -27 -48
-27 -51 94 c-28 52 -51 99 -51 103 0 9 78 42 93 39 4 -1 30 -42 56 -92z m2412
31 c-10 -16 -35 -62 -56 -102 l-37 -72 -34 22 c-18 12 -34 25 -34 29 0 7 60
122 86 165 13 21 14 21 53 5 l40 -17 -18 -30z m-2214 -306 c12 -14 8 -21 -31
-52 l-44 -37 -71 88 c-39 48 -71 90 -71 93 0 3 21 17 46 31 l47 26 55 -67 c31
-36 62 -73 69 -82z m2024 4 l-76 -93 -28 32 c-15 18 -25 38 -23 45 3 7 33 46
66 87 l62 75 37 -27 37 -27 -75 -92z m1062 -1443 c523 -828 972 -1536 996
-1575 l44 -70 -60 53 c-55 47 -157 200 -999 1490 -516 790 -953 1460 -972
1489 l-34 52 28 35 c16 19 32 34 36 33 5 -1 437 -679 961 -1507z m-115 -31
c513 -787 932 -1433 930 -1434 -2 -2 -57 42 -123 97 l-120 101 -866 1274
c-806 1185 -866 1276 -855 1298 6 14 16 25 23 25 6 0 24 15 40 34 15 19 30 35
33 35 3 0 425 -643 938 -1430z m-2847 1359 c43 -35 78 -66 78 -69 1 -3 -13
-24 -30 -46 l-32 -41 -86 71 c-48 40 -88 76 -89 80 -3 8 65 67 76 67 2 0 40
-28 83 -62z m1792 -8 c-49 -42 -172 -140 -177 -140 -3 0 -15 18 -25 39 l-20
39 81 66 82 67 33 -33 c18 -17 30 -35 26 -38z m-1582 -137 c49 -27 89 -51 89
-54 0 -4 -10 -25 -23 -47 l-23 -40 -102 55 -102 55 31 39 c17 21 33 39 36 39
3 0 45 -21 94 -47z m1346 8 l23 -39 -93 -49 c-50 -26 -97 -49 -104 -51 -9 -3
-27 42 -28 72 0 8 157 101 175 105 3 0 15 -17 27 -38z m-1099 -112 c45 -13 82
-28 82 -34 0 -30 -23 -86 -33 -82 -7 2 -55 17 -107 32 -52 15 -96 29 -98 30
-2 2 6 22 18 45 15 30 26 41 38 37 9 -2 54 -15 100 -28z m861 -10 c7 -23 11
-42 9 -44 -2 -1 -46 -15 -98 -30 -52 -15 -101 -30 -108 -33 -10 -3 -12 7 -10
44 l3 48 90 27 c50 15 93 28 96 28 3 1 11 -17 18 -40z m-565 -45 l48 -6 -6
-41 c-4 -23 -9 -43 -11 -45 -4 -5 -207 17 -212 22 -3 2 1 23 7 46 l11 42 57
-6 c31 -4 79 -9 106 -12z m306 -28 l0 -44 -42 -5 c-24 -4 -74 -9 -112 -13
l-68 -7 7 44 c4 24 8 45 10 47 2 3 138 19 178 21 26 1 27 -1 27 -43z"/>
<path d="M14035 12816 c-10 -7 -19 -19 -21 -27 -5 -31 -35 -88 -50 -97 -13 -7
-14 -13 -5 -30 14 -26 16 -628 1 -637 -15 -9 1 -36 21 -33 13 2 56 -40 145
-142 70 -79 121 -146 115 -148 -8 -3 -8 -9 0 -24 6 -11 16 -17 23 -15 8 3 23
-11 36 -34 18 -33 24 -38 37 -28 12 10 16 10 23 0 6 -11 22 -5 70 25 35 21 65
47 68 56 2 10 10 18 17 18 7 0 76 73 154 162 l141 161 0 337 0 336 -31 50
c-58 91 -26 84 -397 84 -261 0 -332 -3 -347 -14z m689 -61 c9 -13 16 -27 16
-30 0 -3 -157 -5 -350 -5 -192 0 -350 2 -350 5 0 2 5 16 12 30 l11 25 322 0
323 0 16 -25z m36 -408 l0 -324 -132 -151 -132 -152 -103 0 -102 0 -136 154
-135 154 0 321 0 321 370 0 370 0 0 -323z m-340 -681 c0 -2 -14 -13 -32 -24
-30 -19 -33 -19 -45 -4 -20 27 -16 32 32 32 25 0 45 -2 45 -4z"/>
<path d="M12750 11507 l-75 -42 5 -343 5 -344 55 -23 c30 -13 56 -28 58 -34 3
-8 107 -11 351 -11 l347 0 139 121 c171 148 221 197 235 234 9 23 8 30 -5 37
-20 12 -19 28 1 28 12 0 14 7 9 33 -11 50 -23 77 -35 77 -5 0 -10 6 -11 13 0
6 -74 76 -165 155 l-164 142 -338 -1 -337 0 -75 -42z m900 -138 l150 -131 0
-107 0 -107 -152 -132 -153 -132 -317 0 -318 0 0 370 0 370 320 0 319 0 151
-131z m-844 -586 c-2 -2 -20 3 -40 11 l-36 15 0 318 0 318 38 21 37 22 3 -351
c1 -192 0 -352 -2 -354z"/>
<path d="M15253 11540 c-13 -5 -23 -16 -23 -24 0 -21 -264 -249 -300 -260 -17
-5 -29 -14 -27 -20 3 -6 -12 -28 -31 -49 -50 -52 -52 -95 -5 -127 18 -12 36
-34 39 -47 5 -19 11 -23 29 -19 18 5 51 -19 168 -121 81 -71 141 -130 135
-134 -6 -4 -9 -12 -7 -18 3 -8 102 -12 361 -12 l358 1 55 31 c30 17 55 37 55
45 0 8 7 14 15 14 13 0 15 43 15 330 0 287 -2 330 -15 330 -8 0 -15 6 -15 14
0 8 -24 28 -54 45 l-53 31 -339 -1 c-187 0 -349 -4 -361 -9z m677 -410 l0
-370 -321 0 -321 0 -154 135 -154 136 0 102 1 102 152 132 152 133 323 0 322
0 0 -370z m85 334 l25 -16 0 -319 0 -318 -30 -16 -30 -16 0 351 c0 192 2 350
5 350 3 0 17 -7 30 -16z m-1085 -339 c0 -60 -3 -61 -55 -21 -20 16 -19 16 13
46 18 16 34 30 37 30 3 0 5 -25 5 -55z"/>
<path d="M14360 10632 c0 -11 10 -24 23 -30 20 -10 18 -11 -17 -11 -31 -1 -36
1 -27 13 8 10 8 16 -2 25 -11 8 -18 6 -33 -10 -10 -12 -29 -25 -41 -30 -13 -5
-23 -17 -23 -27 0 -28 -236 -296 -265 -300 -21 -3 -22 -6 -13 -39 5 -20 8
-168 6 -359 -2 -224 0 -324 8 -324 13 0 44 -64 44 -90 0 -20 9 -20 345 -20
394 0 362 -7 418 92 l27 47 0 336 0 336 -142 164 c-79 90 -149 164 -155 164
-7 1 -13 6 -13 11 0 9 -120 70 -136 70 -2 0 -4 -8 -4 -18z m269 -242 l131
-149 0 -326 0 -325 -370 0 -370 0 0 323 1 322 132 152 132 152 106 1 106 0
132 -150z m96 -880 l-16 -30 -323 0 -323 0 -11 25 c-7 14 -12 28 -12 30 0 3
158 5 350 5 l351 0 -16 -30z"/>
<path d="M12035 9810 c-85 -11 -226 -59 -321 -107 -86 -44 -244 -166 -244
-189 0 -8 -6 -14 -14 -14 -23 0 -139 -149 -188 -242 -160 -301 -158 -663 5
-962 161 -298 467 -509 795 -547 197 -24 422 18 592 109 91 49 250 169 250
190 0 6 6 12 13 12 6 0 42 37 78 83 301 376 301 897 0 1274 -36 46 -71 83 -78
83 -6 0 -13 6 -15 14 -6 26 -148 135 -241 185 -50 27 -139 63 -197 80 -89 27
-125 32 -240 36 -74 2 -162 0 -195 -5z m-38 -68 c9 -6 10 -21 5 -52 l-7 -45
-53 -3 c-28 -2 -52 -1 -52 2 0 21 42 95 57 99 29 7 37 7 50 -1z m151 -50 l3
-52 -54 0 -54 0 8 46 c12 61 13 63 57 60 l37 -2 3 -52z m124 49 c5 -1 38 -85
38 -98 0 -2 -24 -3 -54 -3 l-54 0 -4 53 -3 52 35 -1 c19 -1 38 -3 42 -3z m158
-48 l30 -53 -49 0 -49 0 -16 47 c-22 63 -21 65 19 61 31 -3 39 -10 65 -55z
m109 8 c13 -9 31 -27 39 -39 15 -23 15 -23 -27 -20 -39 3 -46 7 -68 46 l-26
43 29 -6 c16 -4 40 -15 53 -24z m-684 -17 c-8 -20 -15 -38 -15 -40 0 -2 -20
-4 -45 -4 -25 0 -45 5 -45 10 0 17 38 44 78 56 20 7 38 12 40 13 1 1 -5 -15
-13 -35z m811 -41 c-8 -8 -36 5 -36 17 0 7 6 7 21 0 11 -7 18 -14 15 -17z
m-998 -51 c-1 -4 -14 -35 -28 -70 l-25 -62 -52 0 c-29 0 -53 3 -53 6 0 15 46
81 74 106 28 24 93 40 84 20z m148 -5 c2 -1 -4 -31 -13 -65 l-15 -62 -59 0
c-33 0 -59 4 -59 9 0 5 11 36 25 68 l26 59 46 -3 c25 -2 47 -4 49 -6z m344 -2
c0 -6 -29 -15 -65 -21 -54 -8 -65 -7 -60 4 3 8 5 17 5 21 0 4 27 7 60 7 36 0
60 -4 60 -11z m335 -29 c7 -17 12 -32 11 -33 -1 -2 -30 7 -64 18 -86 29 -82
61 6 50 27 -3 37 -10 47 -35z m161 -26 l33 -65 -30 -3 c-47 -5 -89 26 -110 83
-10 28 -19 51 -19 53 0 2 21 2 47 0 46 -3 46 -3 79 -68z m130 8 c21 -34 41
-66 42 -70 2 -5 -17 -8 -42 -8 l-46 0 -35 70 -35 70 38 0 c37 0 41 -3 78 -62z
m-796 48 c0 -18 -22 -56 -32 -56 -7 0 -36 -11 -65 -24 -29 -14 -50 -19 -48
-13 2 7 9 31 15 55 l11 42 59 0 c33 0 60 -2 60 -4z m340 -6 c0 -12 -77 -12
-105 0 -14 6 -2 9 43 9 35 1 62 -3 62 -9z m569 -118 c-14 -5 -31 11 -53 50
l-19 33 41 -40 c22 -22 36 -42 31 -43z m-566 53 c32 -4 89 -17 127 -30 246
-84 409 -253 486 -503 24 -76 27 -104 27 -217 0 -153 -18 -226 -91 -368 -83
-164 -243 -294 -437 -355 -70 -22 -98 -25 -225 -25 -128 0 -154 3 -225 26
-255 81 -422 251 -502 511 -21 68 -25 102 -25 211 -1 113 3 141 26 215 94 305
329 502 643 540 67 8 80 7 196 -5z m-921 -180 c-26 -72 -28 -75 -60 -75 l-32
0 21 43 c26 51 70 105 86 106 7 1 2 -26 -15 -74z m165 0 l-20 -75 -65 0 c-47
0 -63 3 -59 13 2 6 14 40 27 75 l23 62 57 0 57 0 -20 -75z m120 44 c-20 -17
-37 -36 -37 -44 0 -7 -9 -15 -20 -18 -17 -4 -19 -2 -13 21 16 67 20 72 65 72
l43 0 -38 -31z m1193 -44 l28 -70 -31 -3 c-25 -3 -37 4 -64 32 -19 19 -40 54
-48 76 l-14 41 50 -3 51 -3 28 -70z m89 49 c12 -15 21 -35 21 -45 0 -11 4 -19
8 -19 8 0 32 -43 32 -55 0 -3 -17 -5 -37 -5 -37 0 -38 1 -66 68 -15 37 -27 70
-27 75 0 18 50 5 69 -19z m-1614 -196 c-3 -13 -11 -52 -18 -88 -14 -71 -22
-77 -82 -66 l-33 7 20 67 c29 98 33 102 79 102 36 0 39 -2 34 -22z m127 -68
c-44 -87 -48 -90 -80 -90 -24 0 -33 4 -29 13 3 8 11 48 18 90 l13 77 62 0 63
0 -47 -90z m1456 39 c7 -29 10 -54 8 -56 -4 -5 -56 90 -56 102 0 3 8 5 18 5
14 0 21 -13 30 -51z m138 -36 l21 -81 -21 -6 c-58 -16 -61 -12 -83 85 l-20 90
41 -3 40 -3 22 -82z m-1761 -147 c1 0 -2 -39 -5 -86 l-5 -85 -55 0 -55 0 3 45
c1 25 5 66 8 93 l6 47 51 -6 c29 -4 52 -7 52 -8z m1798 -53 c12 -126 13 -123
-38 -123 l-45 0 0 53 c0 28 -3 69 -6 89 -6 34 -5 37 22 41 63 9 61 12 67 -60z
m-1693 32 c-5 -14 -12 -54 -16 -90 -6 -59 -9 -65 -30 -65 -19 0 -22 5 -20 28
2 15 4 55 5 90 l1 62 35 0 c33 0 34 -1 25 -25z m1747 -137 c-3 -7 -5 -2 -5 12
0 14 2 19 5 13 2 -7 2 -19 0 -25z m-1862 -80 c2 -7 5 -48 7 -90 l3 -78 -52 0
c-35 0 -53 4 -54 13 0 6 -4 47 -7 90 l-8 77 54 0 c33 0 54 -5 57 -12z m99 -55
c3 -38 9 -78 12 -90 5 -20 2 -23 -20 -23 -32 0 -33 4 -39 103 -5 75 -4 77 18
77 20 0 23 -6 29 -67z m1716 45 c0 -13 -3 -53 -7 -90 l-6 -68 -45 0 -45 0 7
38 c3 20 6 61 6 90 l0 52 45 0 c40 0 45 -2 45 -22z m47 0 c-3 -8 -6 -5 -6 6
-1 11 2 17 5 13 3 -3 4 -12 1 -19z m-1832 -268 c6 -30 15 -67 18 -82 7 -27 6
-28 -31 -28 -44 0 -51 8 -81 108 l-19 63 51 -3 51 -3 11 -55z m142 -28 c22
-48 40 -88 38 -90 -1 -1 -27 0 -58 4 l-55 7 -12 66 c-6 36 -14 74 -17 84 -3
14 2 17 29 17 32 -1 35 -4 75 -88z m1599 6 l-22 -83 -41 -3 -41 -3 21 85 21
86 42 0 42 0 -22 -82z m-139 -46 c-6 -23 -17 -42 -24 -42 -9 0 -6 13 9 45 12
24 23 43 24 42 1 -1 -3 -21 -9 -45z m-1539 -165 c14 -37 22 -70 19 -74 -8 -8
-43 35 -81 99 l-28 49 32 -3 c31 -3 35 -7 58 -71z m122 63 c23 0 27 -7 46 -75
l21 -75 -56 0 -56 0 -27 74 c-16 40 -28 77 -28 81 0 4 17 5 38 1 20 -3 48 -6
62 -6z m1387 -2 c-3 -7 -17 -43 -32 -80 l-27 -68 -49 0 -48 0 10 30 c15 41
103 130 130 130 13 0 19 -5 16 -12z m120 -8 c-1 -11 -5 -20 -10 -20 -4 0 -15
-17 -24 -37 -21 -52 -42 -73 -70 -73 -28 0 -27 8 13 98 21 48 25 52 58 52 29
0 34 -4 33 -20z m-1353 -107 l29 -35 -33 4 c-31 3 -36 7 -46 45 -12 39 -11 41
4 31 9 -6 30 -26 46 -45z m1216 -79 c-8 -3 -23 -19 -33 -36 -10 -17 -20 -28
-23 -25 -11 10 37 67 54 66 13 -1 14 -2 2 -5z m-1258 -66 l26 -63 -24 -3 c-30
-4 -82 37 -113 91 l-22 37 54 0 53 0 26 -62z m161 2 c10 -33 17 -62 17 -65 0
-3 -22 -5 -50 -5 -48 0 -49 1 -69 44 -39 89 -40 86 27 86 l59 0 16 -60z m885
53 c-2 -5 -17 -34 -33 -65 l-29 -58 -48 0 -48 0 15 36 c8 20 15 38 15 40 0 2
21 15 48 28 46 24 87 34 80 19z m132 0 c0 -3 -17 -33 -37 -65 -35 -53 -41 -58
-74 -58 l-37 0 35 65 c33 63 35 65 74 65 21 0 39 -3 39 -7z m-925 -53 c17 -11
38 -20 47 -20 18 0 48 -26 48 -41 0 -5 -26 -9 -58 -9 l-59 0 -11 39 c-19 60
-15 63 33 31z m596 -42 c-7 -19 -17 -24 -60 -26 -28 -2 -51 1 -51 5 0 5 24 16
53 24 69 22 68 22 58 -3z m-352 -24 c2 -2 -19 -4 -47 -4 -29 0 -52 4 -52 9 0
8 90 3 99 -5z m188 0 c-3 -3 -12 -4 -19 -1 -8 3 -5 6 6 6 11 1 17 -2 13 -5z
m333 -54 c-20 -13 -33 -13 -25 0 3 6 14 10 23 10 15 0 15 -2 2 -10z m-805 -37
l14 -32 -52 19 c-29 11 -53 20 -53 20 -1 0 -5 7 -8 16 -5 12 2 15 40 12 41 -3
47 -6 59 -35z m140 25 c2 -7 6 -31 10 -52 l6 -39 -37 6 c-44 7 -48 11 -69 60
l-15 37 50 0 c32 0 52 -5 55 -12z m153 -35 l-3 -48 -42 -3 c-24 -2 -43 0 -43
5 -1 4 -5 27 -9 51 l-8 42 54 0 54 0 -3 -47z m144 -3 c-16 -49 -16 -50 -56
-50 l-41 0 3 50 4 50 53 0 53 0 -16 -50z m158 44 c0 -3 -12 -25 -26 -50 -23
-39 -30 -44 -61 -44 -32 0 -35 2 -29 25 17 69 23 75 71 75 25 0 45 -3 45 -6z
m130 -2 c0 -21 -83 -72 -117 -72 -2 0 7 18 19 40 20 35 27 40 61 40 20 0 37
-4 37 -8z"/>
<path d="M12165 9369 c-72 -7 -154 -32 -215 -67 -50 -29 -139 -94 -140 -103 0
-3 -20 -26 -43 -51 -89 -92 -147 -245 -147 -383 0 -87 30 -208 66 -273 40 -68
97 -141 112 -142 6 0 12 -5 12 -11 0 -15 52 -57 121 -101 201 -124 483 -103
666 50 24 20 43 42 43 49 0 7 6 13 14 13 17 0 73 69 110 135 95 171 94 389 -2
563 -35 63 -92 132 -109 132 -7 0 -13 6 -13 14 0 17 -88 85 -149 116 -96 48
-216 70 -326 59z m233 -72 c130 -39 252 -135 311 -243 54 -101 74 -178 74
-289 -1 -265 -152 -466 -407 -540 -37 -11 -92 -17 -154 -16 -314 1 -552 241
-552 556 0 381 359 643 728 532z"/>
</g>
</svg>
